HIERARCHY
ROOT hip
{
  OFFSET 0 0 0
  CHANNELS 6 Xposition Yposition Zposition Zrotation Yrotation Xrotation
  JOINT abdomen
  {
    OFFSET 0 20.6881 -0.73152
    CHANNELS 3 Zrotation Xrotation Yrotation
    JOINT chest
    {
      OFFSET 0 11.7043 -0.48768
      CHANNELS 3 Zrotation Xrotation Yrotation
      JOINT neck
      {
        OFFSET 0 22.1894 -2.19456
        CHANNELS 3 Zrotation Xrotation Yrotation
        JOINT head
        {
          OFFSET -0.24384 7.07133 1.2192
          CHANNELS 3 Zrotation Xrotation Yrotation
          JOINT leftEye
          {
            OFFSET 4.14528 8.04674 8.04672
            CHANNELS 3 Zrotation Xrotation Yrotation
            End Site
            {
              OFFSET 1 0 0
            }
          }
          JOINT rightEye
          {
            OFFSET -3.6576 8.04674 8.04672
            CHANNELS 3 Zrotation Xrotation Yrotation
            End Site
            {
              OFFSET 1 0 0
            }
          }
        }
      }
      JOINT rCollar
      {
        OFFSET -2.68224 19.2634 -4.8768
        CHANNELS 3 Zrotation Xrotation Yrotation
        JOINT rShldr
        {
          OFFSET -8.77824 -1.95073 1.46304
          CHANNELS 3 Zrotation Xrotation Yrotation
          JOINT rForeArm
          {
            OFFSET -28.1742 -1.7115 0.48768
            CHANNELS 3 Zrotation Xrotation Yrotation
            JOINT rHand
            {
              OFFSET -22.5879 0.773209 7.07136
              CHANNELS 3 Zrotation Xrotation Yrotation
              JOINT rThumb1
              {
                OFFSET -1.2192 -0.487915 3.41376
                CHANNELS 3 Zrotation Xrotation Yrotation
                JOINT rThumb2
                {
                  OFFSET -3.37035 -0.52449 3.41376
                  CHANNELS 3 Zrotation Xrotation Yrotation
                  End Site
                  {
                    OFFSET -1.78271 -1.18214 1.43049
                  }
                }
              }
              JOINT rIndex1
              {
                OFFSET -7.75947 0.938293 5.60832
                CHANNELS 3 Zrotation Xrotation Yrotation
                JOINT rIndex2
                {
                  OFFSET -2.54057 -0.884171 1.56538
                  CHANNELS 3 Zrotation Xrotation Yrotation
                  End Site
                  {
                    OFFSET -1.62519 -0.234802 1.16502
                  }
                }
              }
              JOINT rMid1
              {
                OFFSET -8.24714 1.18213 3.41376
                CHANNELS 3 Zrotation Xrotation Yrotation
                JOINT rMid2
                {
                  OFFSET -3.10165 -0.590103 1.0647
                  CHANNELS 3 Zrotation Xrotation Yrotation
                  End Site
                  {
                    OFFSET -2.48547 -0.328903 0.83742
                  }
                }
              }
              JOINT rRing1
              {
                OFFSET -8.82822 0.546677 1.51678
                CHANNELS 3 Zrotation Xrotation Yrotation
                JOINT rRing2
                {
                  OFFSET -2.60934 -0.819778 -0.0198488
                  CHANNELS 3 Zrotation Xrotation Yrotation
                  End Site
                  {
                    OFFSET -2.33842 -0.294052 0.168128
                  }
                }
              }
              JOINT rPinky1
              {
                OFFSET -8.27202 -0.0477905 -0.4584
                CHANNELS 3 Zrotation Xrotation Yrotation
                JOINT rPinky2
                {
                  OFFSET -1.82734 -0.647385 -0.700984
                  CHANNELS 3 Zrotation Xrotation Yrotation
                  End Site
                  {
                    OFFSET -1.69225 -0.51767 -0.607171
                  }
                }
              }
            }
          }
        }
      }
      JOINT lCollar
      {
        OFFSET 2.68224 19.2634 -4.8768
        CHANNELS 3 Zrotation Xrotation Yrotation
        JOINT lShldr
        {
          OFFSET 8.77824 -1.95073 1.46304
          CHANNELS 3 Zrotation Xrotation Yrotation
          JOINT lForeArm
          {
            OFFSET 28.1742 -1.7115 0.48768
            CHANNELS 3 Zrotation Xrotation Yrotation
            JOINT lHand
            {
              OFFSET 22.5879 0.773209 7.07136
              CHANNELS 3 Zrotation Xrotation Yrotation
              JOINT lThumb1
              {
                OFFSET 1.2192 -0.487915 3.41376
                CHANNELS 3 Zrotation Xrotation Yrotation
                JOINT lThumb2
                {
                  OFFSET 3.37035 -0.52449 3.41376
                  CHANNELS 3 Zrotation Xrotation Yrotation
                  End Site
                  {
                    OFFSET 1.78271 -1.18214 1.43049
                  }
                }
              }
              JOINT lIndex1
              {
                OFFSET 7.75947 0.938293 5.60832
                CHANNELS 3 Zrotation Xrotation Yrotation
                JOINT lIndex2
                {
                  OFFSET 2.54057 -0.884171 1.56538
                  CHANNELS 3 Zrotation Xrotation Yrotation
                  End Site
                  {
                    OFFSET 1.62519 -0.234802 1.16502
                  }
                }
              }
              JOINT lMid1
              {
                OFFSET 8.24714 1.18213 3.41376
                CHANNELS 3 Zrotation Xrotation Yrotation
                JOINT lMid2
                {
                  OFFSET 3.10165 -0.590103 1.0647
                  CHANNELS 3 Zrotation Xrotation Yrotation
                  End Site
                  {
                    OFFSET 2.48547 -0.328903 0.83742
                  }
                }
              }
              JOINT lRing1
              {
                OFFSET 8.82822 0.546677 1.51678
                CHANNELS 3 Zrotation Xrotation Yrotation
                JOINT lRing2
                {
                  OFFSET 2.60934 -0.819778 -0.0198488
                  CHANNELS 3 Zrotation Xrotation Yrotation
                  End Site
                  {
                    OFFSET 2.33842 -0.294052 0.168128
                  }
                }
              }
              JOINT lPinky1
              {
                OFFSET 8.27202 -0.0477905 -0.4584
                CHANNELS 3 Zrotation Xrotation Yrotation
                JOINT lPinky2
                {
                  OFFSET 1.82734 -0.647385 -0.700984
                  CHANNELS 3 Zrotation Xrotation Yrotation
                  End Site
                  {
                    OFFSET 1.69225 -0.51767 -0.607171
                  }
                }
              }
            }
          }
        }
      }
    }
  }
  JOINT rButtock
  {
    OFFSET -8.77824 4.35084 1.2192
    CHANNELS 3 Zrotation Xrotation Yrotation
    JOINT rThigh
    {
      OFFSET 0 -1.70687 -2.19456
      CHANNELS 3 Zrotation Xrotation Yrotation
      JOINT rShin
      {
        OFFSET 0 -36.8199 0.73152
        CHANNELS 3 Zrotation Xrotation Yrotation
        JOINT rFoot
        {
          OFFSET 0.73152 -45.1104 -5.12064
          CHANNELS 3 Zrotation Xrotation Yrotation
          End Site
          {
            OFFSET -1.1221 -3.69964 12.103
          }
        }
      }
    }
  }
  JOINT lButtock
  {
    OFFSET 8.77824 4.35084 1.2192
    CHANNELS 3 Zrotation Xrotation Yrotation
    JOINT lThigh
    {
      OFFSET 0 -1.70687 -2.19456
      CHANNELS 3 Zrotation Xrotation Yrotation
      JOINT lShin
      {
        OFFSET 0 -36.8199 0.73152
        CHANNELS 3 Zrotation Xrotation Yrotation
        JOINT lFoot
        {
          OFFSET -0.73152 -45.1104 -5.12064
          CHANNELS 3 Zrotation Xrotation Yrotation
          End Site
          {
            OFFSET 1.1221 -3.69964 12.103
          }
        }
      }
    }
  }
}
MOTION
Frames:	4
Frame Time:	0.00833333
56.2676 83.9987 -5.23518 460.566 73.9809 460.214 -20.8711 5.09392 -5.57932 8.93631 -1.27463 -1.54826 6.98491 -8.68014 4.95775 -3.87892 -10.2702 6.5978 -0.0 0.0 0.0 -0.0 0.0 0.0 -1.61703e-13 2.30817e-12 7.80851e-14 84.791 31.5371 -20.8466 -15.9959 -8.68335 29.6644 -0.00614618 -2.20498 -0.31005 3.49546e-10 -7.40618e-10 -3.88069e-10 5.9934e-10 -1.28198e-09 -6.7228e-10 3.49551e-10 -7.40617e-10 -3.88079e-10 7.73091 5.47488 0.417314 3.49548e-10 -7.40622e-10 -3.88067e-10 2.90554 0.965183 0.102902 3.49555e-10 -7.40622e-10 -3.88068e-10 10.2786 0.731801 0.0259123 3.49544e-10 -7.40623e-10 -3.88059e-10 2.22167 -0.733487 -0.20892 -1.61681e-13 2.30817e-12 7.80106e-14 -55.7652 51.1515 -21.7773 21.0083 -14.3349 -41.1888 0.0114021 -3.04522 0.428386 -8.95891e-10 9.92405e-10 -1.20802e-09 -1.54539e-09 1.71801e-09 -2.09156e-09 -8.95894e-10 9.92408e-10 -1.20801e-09 -7.73091 5.47488 -0.417314 -8.95891e-10 9.92411e-10 -1.20802e-09 -2.90554 0.965183 -0.102902 -8.95901e-10 9.9241e-10 -1.20802e-09 -10.2786 0.731801 -0.0259123 -8.95889e-10 9.92413e-10 -1.20802e-09 -2.22167 -0.733487 0.20892 -2.03217e-16 0.0 -3.88251e-19 -23.8593 -31.0363 -10.5638 -0.0722846 12.6263 -0.270773 -0.708376 -8.83707 -1.11788 2.03217e-16 0.0 3.88251e-19 -17.8581 18.1093 6.09218 0.0455962 -0.0973424 0.360215 -1.93823 -10.3733 -9.27201
56.9939 83.847 -5.26846 461.449 73.9929 461.291 -20.6488 5.043 -5.70759 8.92282 -1.19407 -1.58821 6.92984 -8.90341 4.90356 -3.94829 -10.1921 6.48485 -0.0 0.0 0.0 -0.0 0.0 0.0 -2.31886e-13 3.40682e-12 8.64457e-14 84.863 31.4328 -20.9838 -15.9735 -8.66255 29.6167 -0.00638934 -2.24661 -0.31591 3.7753e-10 -1.0858e-09 3.14109e-10 6.47132e-10 -1.88195e-09 5.43964e-10 3.77535e-10 -1.0858e-09 3.14102e-10 7.73091 5.47488 0.417314 3.77533e-10 -1.0858e-09 3.14112e-10 2.90554 0.965183 0.102902 3.77539e-10 -1.0858e-09 3.1411e-10 10.2786 0.731801 0.0259123 3.77527e-10 -1.0858e-09 3.14119e-10 2.22167 -0.733487 -0.20892 -2.31975e-13 3.40682e-12 8.63354e-14 -55.753 51.4892 -21.8985 20.995 -14.3167 -41.1546 0.0112643 -3.02768 0.425913 -4.55864e-10 8.68372e-10 -8.83798e-10 -7.86983e-10 1.50417e-09 -1.53121e-09 -4.55864e-10 8.68376e-10 -8.83792e-10 -7.73091 5.47488 -0.417314 -4.55863e-10 8.68379e-10 -8.83798e-10 -2.90554 0.965183 -0.102902 -4.55873e-10 8.6838e-10 -8.83798e-10 -10.2786 0.731801 -0.0259123 -4.55862e-10 8.68383e-10 -8.838e-10 -2.22167 -0.733487 0.20892 -2.03217e-16 0.0 -3.88251e-19 -24.1293 -31.1166 -11.4912 -0.0716507 12.2456 -0.284515 -0.512933 -9.04584 -0.0238571 2.03217e-16 0.0 3.88251e-19 -17.7471 18.408 5.5965 0.0474973 0.0468498 0.368794 -1.95097 -10.5799 -9.18016
57.7218 83.7297 -5.33368 462.379 73.8469 462.398 -20.4628 4.97638 -5.80836 8.91858 -1.14203 -1.61698 6.873 -9.05325 4.84723 -4.01068 -10.1539 6.37594 -0.0 0.0 0.0 -0.0 0.0 0.0 -2.61523e-13 3.81065e-12 9.14906e-14 84.9283 31.3116 -21.1279 -15.953 -8.64367 29.5736 -0.00576276 -2.16699 -0.304698 5.07057e-10 -1.22762e-09 6.97578e-10 8.71003e-10 -2.12862e-09 1.20804e-09 5.07062e-10 -1.22763e-09 6.97572e-10 7.73091 5.47488 0.417314 5.0706e-10 -1.22763e-09 6.97581e-10 2.90554 0.965183 0.102902 5.07066e-10 -1.22763e-09 6.97578e-10 10.2786 0.731801 0.0259123 5.07053e-10 -1.22763e-09 6.97588e-10 2.22167 -0.733487 -0.20892 -2.61695e-13 3.81065e-12 9.13416e-14 -55.8233 51.8532 -21.9316 20.9656 -14.2769 -41.0789 0.0110544 -3.00048 0.42208 -1.05397e-10 8.16595e-10 -6.78202e-10 -1.82146e-10 1.41491e-09 -1.17556e-09 -1.05396e-10 8.16599e-10 -6.78196e-10 -7.73091 5.47488 -0.417314 -1.05396e-10 8.16603e-10 -6.78202e-10 -2.90554 0.965183 -0.102902 -1.05405e-10 8.16605e-10 -6.78202e-10 -10.2786 0.731801 -0.0259123 -1.05394e-10 8.16608e-10 -6.78206e-10 -2.22167 -0.733487 0.20892 -2.03217e-16 0.0 -3.88251e-19 -24.2886 -31.1943 -12.0162 -0.0718206 12.02 -0.294838 -0.375296 -9.21165 0.707488 2.03217e-16 0.0 3.88251e-19 -17.6419 18.6947 5.1388 0.0486438 0.21111 0.372603 -1.95554 -10.7696 -9.07365
58.4388 83.6224 -5.41228 462.77 73.5593 462.978 -20.3122 4.88932 -5.87627 8.92903 -1.13046 -1.63191 6.81087 -9.09225 4.78751 -4.06467 -10.1861 6.27366 -0.0 0.0 0.0 -0.0 0.0 0.0 -2.22739e-13 2.91669e-12 9.91582e-14 84.9846 31.1499 -21.2919 -15.9406 -8.63215 29.5476 -0.0039977 -1.89247 -0.266055 8.58093e-10 -1.06584e-09 5.74237e-10 1.47869e-09 -1.84764e-09 9.93998e-10 8.58099e-10 -1.06584e-09 5.74228e-10 7.73091 5.47488 0.417314 8.58096e-10 -1.06584e-09 5.74238e-10 2.90554 0.965183 0.102902 8.58102e-10 -1.06584e-09 5.74236e-10 10.2786 0.731801 0.0259123 8.5809e-10 -1.06584e-09 5.74245e-10 2.22167 -0.733487 -0.20892 -2.22957e-13 2.91669e-12 9.89606e-14 -55.9775 52.2599 -21.8811 20.916 -14.2095 -40.952 0.0107617 -2.9612 0.416543 1.25928e-10 9.26261e-10 -6.90864e-10 2.19001e-10 1.60432e-09 -1.19663e-09 1.25929e-10 9.26264e-10 -6.90857e-10 -7.73091 5.47488 -0.417314 1.25929e-10 9.26267e-10 -6.90865e-10 -2.90554 0.965183 -0.102902 1.25921e-10 9.26269e-10 -6.90863e-10 -10.2786 0.731801 -0.0259123 1.25931e-10 9.26272e-10 -6.90868e-10 -2.22167 -0.733487 0.20892 -2.03217e-16 0.0 -3.88251e-19 -24.2908 -31.2855 -11.9952 -0.0731988 11.9546 -0.301424 -0.320398 -9.3432 0.957986 2.03217e-16 0.0 3.88251e-19 -17.5286 18.9604 4.72996 0.0490075 0.394639 0.371178 -1.95231 -10.9474 -8.95156
